{
    "asset" : {
        "generator" : "Khronos glTF Blender I/O v1.5.17",
        "version" : "2.0"
    },
    "scene" : 0,
    "scenes" : [
        {
            "name" : "Scene",
            "nodes" : [
                0,
                3,
                5
            ]
        }
    ],
    "nodes" : [
        {
            "mesh" : 0,
            "name" : "FilingArchive",
            "rotation" : [
                0,
                -0.7071068286895752,
                0,
                0.7071068286895752
            ],
            "scale" : [
                0.38724565505981445,
                0.38724565505981445,
                0.38724565505981445
            ],
            "translation" : [
                4.0893354415893555,
                0,
                2.910977363586426
            ]
        },
        {
            "mesh" : 1,
            "name" : "mainDrawerKeypad",
            "translation" : [
                -3.814697265625e-06,
                7.62939453125e-06,
                -0.07096733152866364
            ]
        },
        {
            "mesh" : 2,
            "name" : "mainDrawerRail",
            "translation" : [
                -3.814697265625e-06,
                2.9492416381835938,
                0
            ]
        },
        {
            "children" : [
                1,
                2
            ],
            "mesh" : 3,
            "name" : "mainDrawer",
            "rotation" : [
                0.5,
                -0.5,
                0.5,
                0.4999999701976776
            ],
            "scale" : [
                0.05043738707900047,
                0.05043738707900047,
                0.05043738707900047
            ],
            "translation" : [
                3.699678897857666,
                0.279554545879364,
                2.908395767211914
            ]
        },
        {
            "mesh" : 4,
            "name" : "smallDrawerRail",
            "translation" : [
                0,
                2.9559173583984375,
                0
            ]
        },
        {
            "children" : [
                4
            ],
            "mesh" : 5,
            "name" : "smallDrawer",
            "rotation" : [
                0.5,
                -0.5,
                0.5,
                0.4999999701976776
            ],
            "scale" : [
                0.05043738707900047,
                0.05043738707900047,
                0.05043738707900047
            ],
            "translation" : [
                3.700833320617676,
                0.7207810878753662,
                2.910977363586426
            ]
        }
    ],
    "animations" : [
        {
            "channels" : [
                {
                    "sampler" : 0,
                    "target" : {
                        "node" : 3,
                        "path" : "translation"
                    }
                }
            ],
            "name" : "mainDrawerCloseAction",
            "samplers" : [
                {
                    "input" : 18,
                    "interpolation" : "LINEAR",
                    "output" : 19
                }
            ]
        },
        {
            "channels" : [
                {
                    "sampler" : 0,
                    "target" : {
                        "node" : 3,
                        "path" : "translation"
                    }
                }
            ],
            "name" : "mainDrawerOpenAction",
            "samplers" : [
                {
                    "input" : 20,
                    "interpolation" : "LINEAR",
                    "output" : 21
                }
            ]
        },
        {
            "channels" : [
                {
                    "sampler" : 0,
                    "target" : {
                        "node" : 5,
                        "path" : "translation"
                    }
                }
            ],
            "name" : "smallDrawerCloseAction",
            "samplers" : [
                {
                    "input" : 18,
                    "interpolation" : "LINEAR",
                    "output" : 22
                }
            ]
        },
        {
            "channels" : [
                {
                    "sampler" : 0,
                    "target" : {
                        "node" : 5,
                        "path" : "translation"
                    }
                }
            ],
            "name" : "smallDrawerOpenAction",
            "samplers" : [
                {
                    "input" : 20,
                    "interpolation" : "LINEAR",
                    "output" : 23
                }
            ]
        },
        {
            "channels" : [
                {
                    "sampler" : 0,
                    "target" : {
                        "node" : 2,
                        "path" : "translation"
                    }
                }
            ],
            "name" : "mainDrawerRailCloseAction",
            "samplers" : [
                {
                    "input" : 18,
                    "interpolation" : "LINEAR",
                    "output" : 24
                }
            ]
        },
        {
            "channels" : [
                {
                    "sampler" : 0,
                    "target" : {
                        "node" : 2,
                        "path" : "translation"
                    }
                }
            ],
            "name" : "mainDrawerRailOpenAction",
            "samplers" : [
                {
                    "input" : 20,
                    "interpolation" : "LINEAR",
                    "output" : 25
                }
            ]
        },
        {
            "channels" : [
                {
                    "sampler" : 0,
                    "target" : {
                        "node" : 2,
                        "path" : "translation"
                    }
                }
            ],
            "name" : "smallDrawerRailCloseAction",
            "samplers" : [
                {
                    "input" : 18,
                    "interpolation" : "LINEAR",
                    "output" : 26
                }
            ]
        },
        {
            "channels" : [
                {
                    "sampler" : 0,
                    "target" : {
                        "node" : 4,
                        "path" : "translation"
                    }
                }
            ],
            "name" : "smallDrawerRailCloseAction",
            "samplers" : [
                {
                    "input" : 18,
                    "interpolation" : "LINEAR",
                    "output" : 27
                }
            ]
        },
        {
            "channels" : [
                {
                    "sampler" : 0,
                    "target" : {
                        "node" : 4,
                        "path" : "translation"
                    }
                }
            ],
            "name" : "smallDrawerRailOpenAction",
            "samplers" : [
                {
                    "input" : 20,
                    "interpolation" : "LINEAR",
                    "output" : 28
                }
            ]
        }
    ],
    "materials" : [
        {
            "doubleSided" : true,
            "name" : "filingArchiveBake",
            "pbrMetallicRoughness" : {
                "baseColorTexture" : {
                    "index" : 0
                },
                "metallicFactor" : 0,
                "roughnessFactor" : 0.5
            }
        },
        {
            "doubleSided" : true,
            "name" : "mainDrawerBake",
            "pbrMetallicRoughness" : {
                "baseColorTexture" : {
                    "index" : 1
                },
                "metallicFactor" : 0.41818180680274963,
                "roughnessFactor" : 0.6312834024429321
            }
        },
        {
            "doubleSided" : true,
            "name" : "smallDrawerBake",
            "pbrMetallicRoughness" : {
                "baseColorTexture" : {
                    "index" : 2
                },
                "metallicFactor" : 0,
                "roughnessFactor" : 0.5
            }
        }
    ],
    "meshes" : [
        {
            "name" : "Cube.004",
            "primitives" : [
                {
                    "attributes" : {
                        "POSITION" : 0,
                        "TEXCOORD_0" : 1
                    },
                    "indices" : 2,
                    "material" : 0
                }
            ]
        },
        {
            "name" : "Plane.008",
            "primitives" : [
                {
                    "attributes" : {
                        "POSITION" : 3,
                        "TEXCOORD_0" : 4
                    },
                    "indices" : 5,
                    "material" : 1
                }
            ]
        },
        {
            "name" : "Plane.010",
            "primitives" : [
                {
                    "attributes" : {
                        "POSITION" : 6,
                        "TEXCOORD_0" : 7
                    },
                    "indices" : 8,
                    "material" : 1
                }
            ]
        },
        {
            "name" : "Plane.007",
            "primitives" : [
                {
                    "attributes" : {
                        "POSITION" : 9,
                        "TEXCOORD_0" : 10
                    },
                    "indices" : 11,
                    "material" : 1
                }
            ]
        },
        {
            "name" : "Plane.013",
            "primitives" : [
                {
                    "attributes" : {
                        "POSITION" : 12,
                        "TEXCOORD_0" : 13
                    },
                    "indices" : 14,
                    "material" : 2
                }
            ]
        },
        {
            "name" : "Plane.005",
            "primitives" : [
                {
                    "attributes" : {
                        "POSITION" : 15,
                        "TEXCOORD_0" : 16
                    },
                    "indices" : 17,
                    "material" : 2
                }
            ]
        }
    ],
    "textures" : [
        {
            "sampler" : 0,
            "source" : 0
        },
        {
            "sampler" : 0,
            "source" : 1
        },
        {
            "sampler" : 0,
            "source" : 2
        }
    ],
    "images" : [
        {
            "bufferView" : 3,
            "mimeType" : "image/png",
            "name" : "filingArchiveCompressed-min"
        },
        {
            "bufferView" : 7,
            "mimeType" : "image/png",
            "name" : "mainDrawerCompressed-min"
        },
        {
            "bufferView" : 17,
            "mimeType" : "image/png",
            "name" : "smallDrawerCompressed-min"
        }
    ],
    "accessors" : [
        {
            "bufferView" : 0,
            "componentType" : 5126,
            "count" : 1641,
            "max" : [
                0.7726609110832214,
                4.145869255065918,
                1.1053268909454346
            ],
            "min" : [
                -0.7726609110832214,
                0,
                -1.0124015808105469
            ],
            "type" : "VEC3"
        },
        {
            "bufferView" : 1,
            "componentType" : 5126,
            "count" : 1641,
            "type" : "VEC2"
        },
        {
            "bufferView" : 2,
            "componentType" : 5123,
            "count" : 4518,
            "type" : "SCALAR"
        },
        {
            "bufferView" : 4,
            "componentType" : 5126,
            "count" : 758,
            "max" : [
                1.702086091041565,
                0.23672136664390564,
                0.4695066809654236
            ],
            "min" : [
                -1.7040449380874634,
                -0.002110811183229089,
                -1.5894544124603271
            ],
            "type" : "VEC3"
        },
        {
            "bufferView" : 5,
            "componentType" : 5126,
            "count" : 758,
            "type" : "VEC2"
        },
        {
            "bufferView" : 6,
            "componentType" : 5123,
            "count" : 2232,
            "type" : "SCALAR"
        },
        {
            "bufferView" : 8,
            "componentType" : 5126,
            "count" : 140,
            "max" : [
                4.494886875152588,
                -3.398874282836914,
                3.6777799129486084
            ],
            "min" : [
                -4.494886875152588,
                -14.53959846496582,
                2.909663200378418
            ],
            "type" : "VEC3"
        },
        {
            "bufferView" : 9,
            "componentType" : 5126,
            "count" : 140,
            "type" : "VEC2"
        },
        {
            "bufferView" : 10,
            "componentType" : 5123,
            "count" : 372,
            "type" : "SCALAR"
        },
        {
            "bufferView" : 11,
            "componentType" : 5126,
            "count" : 448,
            "max" : [
                5.048275947570801,
                0.8086733222007751,
                4.669204235076904
            ],
            "min" : [
                -5.048275947570801,
                -14.658126831054688,
                -3.478513717651367
            ],
            "type" : "VEC3"
        },
        {
            "bufferView" : 12,
            "componentType" : 5126,
            "count" : 448,
            "type" : "VEC2"
        },
        {
            "bufferView" : 13,
            "componentType" : 5123,
            "count" : 1260,
            "type" : "SCALAR"
        },
        {
            "bufferView" : 14,
            "componentType" : 5126,
            "count" : 144,
            "max" : [
                4.4948859214782715,
                -3.3988735675811768,
                3.6777775287628174
            ],
            "min" : [
                -4.4948859214782715,
                -14.539595603942871,
                2.909661293029785
            ],
            "type" : "VEC3"
        },
        {
            "bufferView" : 15,
            "componentType" : 5126,
            "count" : 144,
            "type" : "VEC2"
        },
        {
            "bufferView" : 16,
            "componentType" : 5123,
            "count" : 372,
            "type" : "SCALAR"
        },
        {
            "bufferView" : 18,
            "componentType" : 5126,
            "count" : 512,
            "max" : [
                5.048275947570801,
                0.8086739778518677,
                4.669204235076904
            ],
            "min" : [
                -5.048275947570801,
                -14.658126831054688,
                0.8700644969940186
            ],
            "type" : "VEC3"
        },
        {
            "bufferView" : 19,
            "componentType" : 5126,
            "count" : 512,
            "type" : "VEC2"
        },
        {
            "bufferView" : 20,
            "componentType" : 5123,
            "count" : 1386,
            "type" : "SCALAR"
        },
        {
            "bufferView" : 21,
            "componentType" : 5126,
            "count" : 30,
            "max" : [
                1.25
            ],
            "min" : [
                0.041666666666666664
            ],
            "type" : "SCALAR"
        },
        {
            "bufferView" : 22,
            "componentType" : 5126,
            "count" : 30,
            "type" : "VEC3"
        },
        {
            "bufferView" : 23,
            "componentType" : 5126,
            "count" : 49,
            "max" : [
                2.0416666666666665
            ],
            "min" : [
                0.041666666666666664
            ],
            "type" : "SCALAR"
        },
        {
            "bufferView" : 24,
            "componentType" : 5126,
            "count" : 49,
            "type" : "VEC3"
        },
        {
            "bufferView" : 25,
            "componentType" : 5126,
            "count" : 30,
            "type" : "VEC3"
        },
        {
            "bufferView" : 26,
            "componentType" : 5126,
            "count" : 49,
            "type" : "VEC3"
        },
        {
            "bufferView" : 27,
            "componentType" : 5126,
            "count" : 30,
            "type" : "VEC3"
        },
        {
            "bufferView" : 28,
            "componentType" : 5126,
            "count" : 49,
            "type" : "VEC3"
        },
        {
            "bufferView" : 29,
            "componentType" : 5126,
            "count" : 30,
            "type" : "VEC3"
        },
        {
            "bufferView" : 30,
            "componentType" : 5126,
            "count" : 30,
            "type" : "VEC3"
        },
        {
            "bufferView" : 31,
            "componentType" : 5126,
            "count" : 49,
            "type" : "VEC3"
        }
    ],
    "bufferViews" : [
        {
            "buffer" : 0,
            "byteLength" : 19692,
            "byteOffset" : 0
        },
        {
            "buffer" : 0,
            "byteLength" : 13128,
            "byteOffset" : 19692
        },
        {
            "buffer" : 0,
            "byteLength" : 9036,
            "byteOffset" : 32820
        },
        {
            "buffer" : 0,
            "byteLength" : 262519,
            "byteOffset" : 41856
        },
        {
            "buffer" : 0,
            "byteLength" : 9096,
            "byteOffset" : 304376
        },
        {
            "buffer" : 0,
            "byteLength" : 6064,
            "byteOffset" : 313472
        },
        {
            "buffer" : 0,
            "byteLength" : 4464,
            "byteOffset" : 319536
        },
        {
            "buffer" : 0,
            "byteLength" : 178136,
            "byteOffset" : 324000
        },
        {
            "buffer" : 0,
            "byteLength" : 1680,
            "byteOffset" : 502136
        },
        {
            "buffer" : 0,
            "byteLength" : 1120,
            "byteOffset" : 503816
        },
        {
            "buffer" : 0,
            "byteLength" : 744,
            "byteOffset" : 504936
        },
        {
            "buffer" : 0,
            "byteLength" : 5376,
            "byteOffset" : 505680
        },
        {
            "buffer" : 0,
            "byteLength" : 3584,
            "byteOffset" : 511056
        },
        {
            "buffer" : 0,
            "byteLength" : 2520,
            "byteOffset" : 514640
        },
        {
            "buffer" : 0,
            "byteLength" : 1728,
            "byteOffset" : 517160
        },
        {
            "buffer" : 0,
            "byteLength" : 1152,
            "byteOffset" : 518888
        },
        {
            "buffer" : 0,
            "byteLength" : 744,
            "byteOffset" : 520040
        },
        {
            "buffer" : 0,
            "byteLength" : 106680,
            "byteOffset" : 520784
        },
        {
            "buffer" : 0,
            "byteLength" : 6144,
            "byteOffset" : 627464
        },
        {
            "buffer" : 0,
            "byteLength" : 4096,
            "byteOffset" : 633608
        },
        {
            "buffer" : 0,
            "byteLength" : 2772,
            "byteOffset" : 637704
        },
        {
            "buffer" : 0,
            "byteLength" : 120,
            "byteOffset" : 640476
        },
        {
            "buffer" : 0,
            "byteLength" : 360,
            "byteOffset" : 640596
        },
        {
            "buffer" : 0,
            "byteLength" : 196,
            "byteOffset" : 640956
        },
        {
            "buffer" : 0,
            "byteLength" : 588,
            "byteOffset" : 641152
        },
        {
            "buffer" : 0,
            "byteLength" : 360,
            "byteOffset" : 641740
        },
        {
            "buffer" : 0,
            "byteLength" : 588,
            "byteOffset" : 642100
        },
        {
            "buffer" : 0,
            "byteLength" : 360,
            "byteOffset" : 642688
        },
        {
            "buffer" : 0,
            "byteLength" : 588,
            "byteOffset" : 643048
        },
        {
            "buffer" : 0,
            "byteLength" : 360,
            "byteOffset" : 643636
        },
        {
            "buffer" : 0,
            "byteLength" : 360,
            "byteOffset" : 643996
        },
        {
            "buffer" : 0,
            "byteLength" : 588,
            "byteOffset" : 644356
        }
    ],
    "samplers" : [
        {
            "magFilter" : 9729,
            "minFilter" : 9987
        }
    ],
    "buffers" : [
        {
            "byteLength" : 644944,
            "uri" : "data:application/octet-stream;base64,"
        }
    ]
}
