{
    "asset" : {
        "generator" : "Khronos glTF Blender I/O v1.5.17",
        "version" : "2.0"
    },
    "scene" : 0,
    "scenes" : [
        {
            "name" : "Scene",
            "nodes" : [
                0,
                1,
                2,
                3,
                4,
                5
            ]
        }
    ],
    "nodes" : [
        {
            "mesh" : 0,
            "name" : "AsagaoFlowers",
            "rotation" : [
                0.6735116243362427,
                0.21536514163017273,
                -0.21536514163017273,
                0.6735115647315979
            ],
            "scale" : [
                0.15030474960803986,
                -0.15030474960803986,
                0.15030474960803986
            ],
            "translation" : [
                -1.4220507144927979,
                1.3020018339157104,
                0.2412160187959671
            ]
        },
        {
            "mesh" : 1,
            "name" : "BloodGrassBokay",
            "rotation" : [
                0.5200663805007935,
                0.579197347164154,
                -0.48815450072288513,
                0.3946727514266968
            ],
            "scale" : [
                0.13643629848957062,
                0.13643626868724823,
                0.1364363580942154
            ],
            "translation" : [
                -1.4567153453826904,
                1.26205575466156,
                0.316599577665329
            ]
        },
        {
            "mesh" : 2,
            "name" : "LotusBokay",
            "rotation" : [
                0.2439677119255066,
                -0.2615951597690582,
                0.8134234547615051,
                -0.45868295431137085
            ],
            "scale" : [
                0.27550241351127625,
                0.27550244331359863,
                0.2755025327205658
            ],
            "translation" : [
                -1.3425501585006714,
                1.308019757270813,
                0.18563507497310638
            ]
        },
        {
            "mesh" : 3,
            "name" : "LotusLily",
            "rotation" : [
                0.2439677119255066,
                -0.2615951597690582,
                0.8134234547615051,
                -0.45868295431137085
            ],
            "scale" : [
                0.27550241351127625,
                0.27550244331359863,
                0.2755025327205658
            ],
            "translation" : [
                -1.3425501585006714,
                1.308019757270813,
                0.18563507497310638
            ]
        },
        {
            "mesh" : 4,
            "name" : "LotusInner",
            "rotation" : [
                0.2439677119255066,
                -0.2615951597690582,
                0.8134234547615051,
                -0.45868295431137085
            ],
            "scale" : [
                0.27550241351127625,
                0.27550244331359863,
                0.2755025327205658
            ],
            "translation" : [
                -1.3425501585006714,
                1.308019757270813,
                0.18563507497310638
            ]
        },
        {
            "mesh" : 5,
            "name" : "AsagaoStem",
            "rotation" : [
                0.6735116243362427,
                0.21536514163017273,
                -0.21536514163017273,
                0.6735115647315979
            ],
            "scale" : [
                0.15030474960803986,
                -0.15030474960803986,
                0.15030474960803986
            ],
            "translation" : [
                -1.4220507144927979,
                1.3020018339157104,
                0.2412160187959671
            ]
        }
    ],
    "materials" : [
        {
            "doubleSided" : true,
            "name" : "asagaoFlowerBake",
            "pbrMetallicRoughness" : {
                "baseColorTexture" : {
                    "index" : 0
                },
                "metallicFactor" : 0,
                "roughnessFactor" : 0.6470588445663452
            }
        },
        {
            "doubleSided" : true,
            "name" : "bloodgrassBake",
            "pbrMetallicRoughness" : {
                "baseColorTexture" : {
                    "index" : 1
                },
                "metallicFactor" : 0,
                "roughnessFactor" : 0.5
            }
        },
        {
            "doubleSided" : true,
            "name" : "lotusFlowerBake",
            "pbrMetallicRoughness" : {
                "baseColorTexture" : {
                    "index" : 2
                },
                "metallicFactor" : 0,
                "roughnessFactor" : 0.5
            }
        },
        {
            "doubleSided" : true,
            "name" : "lotusLilyBake",
            "pbrMetallicRoughness" : {
                "baseColorTexture" : {
                    "index" : 3
                },
                "metallicFactor" : 0
            }
        },
        {
            "doubleSided" : true,
            "name" : "lotusInnerBake",
            "pbrMetallicRoughness" : {
                "baseColorTexture" : {
                    "index" : 4
                },
                "metallicFactor" : 0,
                "roughnessFactor" : 0.5
            }
        },
        {
            "doubleSided" : true,
            "name" : "asagaoLeafBake",
            "pbrMetallicRoughness" : {
                "baseColorTexture" : {
                    "index" : 5
                },
                "metallicFactor" : 0,
                "roughnessFactor" : 0.663636326789856
            }
        }
    ],
    "meshes" : [
        {
            "name" : "Plane.009",
            "primitives" : [
                {
                    "attributes" : {
                        "POSITION" : 0,
                        "TEXCOORD_0" : 1
                    },
                    "indices" : 2,
                    "material" : 0
                }
            ]
        },
        {
            "name" : "Plane.001",
            "primitives" : [
                {
                    "attributes" : {
                        "POSITION" : 3,
                        "TEXCOORD_0" : 4
                    },
                    "indices" : 5,
                    "material" : 1
                }
            ]
        },
        {
            "name" : "Circle.001",
            "primitives" : [
                {
                    "attributes" : {
                        "POSITION" : 6,
                        "TEXCOORD_0" : 7
                    },
                    "indices" : 8,
                    "material" : 2
                },
                {
                    "attributes" : {
                        "POSITION" : 9,
                        "TEXCOORD_0" : 10
                    },
                    "indices" : 11,
                    "material" : 3
                }
            ]
        },
        {
            "name" : "Circle.002",
            "primitives" : [
                {
                    "attributes" : {
                        "POSITION" : 12,
                        "TEXCOORD_0" : 13
                    },
                    "indices" : 14,
                    "material" : 3
                }
            ]
        },
        {
            "name" : "Circle.003",
            "primitives" : [
                {
                    "attributes" : {
                        "POSITION" : 15,
                        "TEXCOORD_0" : 16
                    },
                    "indices" : 17,
                    "material" : 4
                }
            ]
        },
        {
            "name" : "Plane.016",
            "primitives" : [
                {
                    "attributes" : {
                        "POSITION" : 18,
                        "TEXCOORD_0" : 19
                    },
                    "indices" : 20,
                    "material" : 5
                }
            ]
        }
    ],
    "textures" : [
        {
            "sampler" : 0,
            "source" : 0
        },
        {
            "sampler" : 0,
            "source" : 1
        },
        {
            "sampler" : 0,
            "source" : 2
        },
        {
            "sampler" : 0,
            "source" : 3
        },
        {
            "sampler" : 0,
            "source" : 4
        },
        {
            "sampler" : 0,
            "source" : 5
        }
    ],
    "images" : [
        {
            "bufferView" : 3,
            "mimeType" : "image/png",
            "name" : "asagaoFlowerCompressed-min"
        },
        {
            "bufferView" : 7,
            "mimeType" : "image/png",
            "name" : "bloodGrassCompressed-min"
        },
        {
            "bufferView" : 11,
            "mimeType" : "image/png",
            "name" : "lotusFlowerCompressed-min"
        },
        {
            "bufferView" : 15,
            "mimeType" : "image/png",
            "name" : "lotusLilyCompressed-min"
        },
        {
            "bufferView" : 22,
            "mimeType" : "image/png",
            "name" : "lotusInnerCompressed-min"
        },
        {
            "bufferView" : 26,
            "mimeType" : "image/png",
            "name" : "asagaoLeafCompressed-min"
        }
    ],
    "accessors" : [
        {
            "bufferView" : 0,
            "componentType" : 5126,
            "count" : 558,
            "max" : [
                0.27574422955513,
                0.4030921459197998,
                -1.2572195529937744
            ],
            "min" : [
                -0.7209677696228027,
                -0.26879972219467163,
                -2.1267638206481934
            ],
            "type" : "VEC3"
        },
        {
            "bufferView" : 1,
            "componentType" : 5126,
            "count" : 558,
            "type" : "VEC2"
        },
        {
            "bufferView" : 2,
            "componentType" : 5123,
            "count" : 2466,
            "type" : "SCALAR"
        },
        {
            "bufferView" : 4,
            "componentType" : 5126,
            "count" : 360,
            "max" : [
                0.475704163312912,
                0.901394784450531,
                0.04113151878118515
            ],
            "min" : [
                -1.844833254814148,
                -0.13493315875530243,
                -4.239750385284424
            ],
            "type" : "VEC3"
        },
        {
            "bufferView" : 5,
            "componentType" : 5126,
            "count" : 360,
            "type" : "VEC2"
        },
        {
            "bufferView" : 6,
            "componentType" : 5123,
            "count" : 1008,
            "type" : "SCALAR"
        },
        {
            "bufferView" : 8,
            "componentType" : 5126,
            "count" : 712,
            "max" : [
                0.33149367570877075,
                -0.7438517212867737,
                0.30353713035583496
            ],
            "min" : [
                -0.33310094475746155,
                -1.0221537351608276,
                -0.2864927053451538
            ],
            "type" : "VEC3"
        },
        {
            "bufferView" : 9,
            "componentType" : 5126,
            "count" : 712,
            "type" : "VEC2"
        },
        {
            "bufferView" : 10,
            "componentType" : 5123,
            "count" : 2772,
            "type" : "SCALAR"
        },
        {
            "bufferView" : 12,
            "componentType" : 5126,
            "count" : 393,
            "max" : [
                0.3936745524406433,
                -0.10568954050540924,
                0.2223813533782959
            ],
            "min" : [
                -0.008112515322864056,
                -0.8243107199668884,
                -0.03645315766334534
            ],
            "type" : "VEC3"
        },
        {
            "bufferView" : 13,
            "componentType" : 5126,
            "count" : 393,
            "type" : "VEC2"
        },
        {
            "bufferView" : 14,
            "componentType" : 5123,
            "count" : 1800,
            "type" : "SCALAR"
        },
        {
            "bufferView" : 16,
            "componentType" : 5126,
            "count" : 220,
            "max" : [
                0.4072977304458618,
                -0.6063329577445984,
                0.3686971068382263
            ],
            "min" : [
                0.02281820774078369,
                -0.7956322431564331,
                -0.20444008708000183
            ],
            "type" : "VEC3"
        },
        {
            "bufferView" : 17,
            "componentType" : 5126,
            "count" : 220,
            "type" : "VEC2"
        },
        {
            "bufferView" : 18,
            "componentType" : 5123,
            "count" : 1188,
            "type" : "SCALAR"
        },
        {
            "bufferView" : 19,
            "componentType" : 5126,
            "count" : 50,
            "max" : [
                0.03482658043503761,
                -0.8285613656044006,
                0.03859037160873413
            ],
            "min" : [
                -0.03644445165991783,
                -0.9011940956115723,
                -0.032680660486221313
            ],
            "type" : "VEC3"
        },
        {
            "bufferView" : 20,
            "componentType" : 5126,
            "count" : 50,
            "type" : "VEC2"
        },
        {
            "bufferView" : 21,
            "componentType" : 5123,
            "count" : 132,
            "type" : "SCALAR"
        },
        {
            "bufferView" : 23,
            "componentType" : 5126,
            "count" : 1260,
            "max" : [
                0.20660576224327087,
                0.49441221356391907,
                -0.0018541812896728516
            ],
            "min" : [
                -0.8021008968353271,
                -0.3113935887813568,
                -1.8355203866958618
            ],
            "type" : "VEC3"
        },
        {
            "bufferView" : 24,
            "componentType" : 5126,
            "count" : 1260,
            "type" : "VEC2"
        },
        {
            "bufferView" : 25,
            "componentType" : 5123,
            "count" : 5724,
            "type" : "SCALAR"
        }
    ],
    "bufferViews" : [
        {
            "buffer" : 0,
            "byteLength" : 6696,
            "byteOffset" : 0
        },
        {
            "buffer" : 0,
            "byteLength" : 4464,
            "byteOffset" : 6696
        },
        {
            "buffer" : 0,
            "byteLength" : 4932,
            "byteOffset" : 11160
        },
        {
            "buffer" : 0,
            "byteLength" : 9517,
            "byteOffset" : 16092
        },
        {
            "buffer" : 0,
            "byteLength" : 4320,
            "byteOffset" : 25612
        },
        {
            "buffer" : 0,
            "byteLength" : 2880,
            "byteOffset" : 29932
        },
        {
            "buffer" : 0,
            "byteLength" : 2016,
            "byteOffset" : 32812
        },
        {
            "buffer" : 0,
            "byteLength" : 3768,
            "byteOffset" : 34828
        },
        {
            "buffer" : 0,
            "byteLength" : 8544,
            "byteOffset" : 38596
        },
        {
            "buffer" : 0,
            "byteLength" : 5696,
            "byteOffset" : 47140
        },
        {
            "buffer" : 0,
            "byteLength" : 5544,
            "byteOffset" : 52836
        },
        {
            "buffer" : 0,
            "byteLength" : 134753,
            "byteOffset" : 58380
        },
        {
            "buffer" : 0,
            "byteLength" : 4716,
            "byteOffset" : 193136
        },
        {
            "buffer" : 0,
            "byteLength" : 3144,
            "byteOffset" : 197852
        },
        {
            "buffer" : 0,
            "byteLength" : 3600,
            "byteOffset" : 200996
        },
        {
            "buffer" : 0,
            "byteLength" : 3531,
            "byteOffset" : 204596
        },
        {
            "buffer" : 0,
            "byteLength" : 2640,
            "byteOffset" : 208128
        },
        {
            "buffer" : 0,
            "byteLength" : 1760,
            "byteOffset" : 210768
        },
        {
            "buffer" : 0,
            "byteLength" : 2376,
            "byteOffset" : 212528
        },
        {
            "buffer" : 0,
            "byteLength" : 600,
            "byteOffset" : 214904
        },
        {
            "buffer" : 0,
            "byteLength" : 400,
            "byteOffset" : 215504
        },
        {
            "buffer" : 0,
            "byteLength" : 264,
            "byteOffset" : 215904
        },
        {
            "buffer" : 0,
            "byteLength" : 2871,
            "byteOffset" : 216168
        },
        {
            "buffer" : 0,
            "byteLength" : 15120,
            "byteOffset" : 219040
        },
        {
            "buffer" : 0,
            "byteLength" : 10080,
            "byteOffset" : 234160
        },
        {
            "buffer" : 0,
            "byteLength" : 11448,
            "byteOffset" : 244240
        },
        {
            "buffer" : 0,
            "byteLength" : 18601,
            "byteOffset" : 255688
        }
    ],
    "samplers" : [
        {
            "magFilter" : 9729,
            "minFilter" : 9987
        }
    ],
    "buffers" : [
        {
            "byteLength" : 274292,
            "uri" : "data:application/octet-stream;base64,"
        }
    ]
}
