{
    "asset" : {
        "generator" : "Khronos glTF Blender I/O v1.5.17",
        "version" : "2.0"
    },
    "scene" : 0,
    "scenes" : [
        {
            "name" : "Scene",
            "nodes" : [
                0,
                1
            ]
        }
    ],
    "nodes" : [
        {
            "mesh" : 0,
            "name" : "Room"
        },
        {
            "mesh" : 1,
            "name" : "Ceiling"
        }
    ],
    "materials" : [
        {
            "doubleSided" : true,
            "name" : "roomBake",
            "pbrMetallicRoughness" : {
                "baseColorTexture" : {
                    "index" : 0
                },
                "metallicFactor" : 0,
                "roughnessFactor" : 0.5
            }
        },
        {
            "doubleSided" : true,
            "name" : "ceilingBake",
            "pbrMetallicRoughness" : {
                "baseColorTexture" : {
                    "index" : 1
                },
                "metallicFactor" : 0,
                "roughnessFactor" : 0.5
            }
        }
    ],
    "meshes" : [
        {
            "name" : "Plane.012",
            "primitives" : [
                {
                    "attributes" : {
                        "POSITION" : 0,
                        "TEXCOORD_0" : 1
                    },
                    "indices" : 2,
                    "material" : 0
                }
            ]
        },
        {
            "name" : "Plane.014",
            "primitives" : [
                {
                    "attributes" : {
                        "POSITION" : 3,
                        "TEXCOORD_0" : 4
                    },
                    "indices" : 5,
                    "material" : 1
                }
            ]
        }
    ],
    "textures" : [
        {
            "sampler" : 0,
            "source" : 0
        },
        {
            "sampler" : 0,
            "source" : 1
        }
    ],
    "images" : [
        {
            "bufferView" : 3,
            "mimeType" : "image/png",
            "name" : "roomCompressed-min"
        },
        {
            "bufferView" : 7,
            "mimeType" : "image/png",
            "name" : "ceilingCompressed-min"
        }
    ],
    "accessors" : [
        {
            "bufferView" : 0,
            "componentType" : 5126,
            "count" : 109,
            "max" : [
                4.5419464111328125,
                3.789212703704834,
                5.3171610832214355
            ],
            "min" : [
                -4.12190055847168,
                9.5367431640625e-07,
                -1.7330212593078613
            ],
            "type" : "VEC3"
        },
        {
            "bufferView" : 1,
            "componentType" : 5126,
            "count" : 109,
            "type" : "VEC2"
        },
        {
            "bufferView" : 2,
            "componentType" : 5123,
            "count" : 360,
            "type" : "SCALAR"
        },
        {
            "bufferView" : 4,
            "componentType" : 5126,
            "count" : 22,
            "max" : [
                4.5419464111328125,
                3.789212703704834,
                5.3171610832214355
            ],
            "min" : [
                -4.12190055847168,
                3.789212703704834,
                -1.7330212593078613
            ],
            "type" : "VEC3"
        },
        {
            "bufferView" : 5,
            "componentType" : 5126,
            "count" : 22,
            "type" : "VEC2"
        },
        {
            "bufferView" : 6,
            "componentType" : 5123,
            "count" : 60,
            "type" : "SCALAR"
        }
    ],
    "bufferViews" : [
        {
            "buffer" : 0,
            "byteLength" : 1308,
            "byteOffset" : 0
        },
        {
            "buffer" : 0,
            "byteLength" : 872,
            "byteOffset" : 1308
        },
        {
            "buffer" : 0,
            "byteLength" : 720,
            "byteOffset" : 2180
        },
        {
            "buffer" : 0,
            "byteLength" : 326060,
            "byteOffset" : 2900
        },
        {
            "buffer" : 0,
            "byteLength" : 264,
            "byteOffset" : 328960
        },
        {
            "buffer" : 0,
            "byteLength" : 176,
            "byteOffset" : 329224
        },
        {
            "buffer" : 0,
            "byteLength" : 120,
            "byteOffset" : 329400
        },
        {
            "buffer" : 0,
            "byteLength" : 51601,
            "byteOffset" : 329520
        }
    ],
    "samplers" : [
        {
            "magFilter" : 9729,
            "minFilter" : 9987
        }
    ],
    "buffers" : [
        {
            "byteLength" : 381124,
            "uri" : "data:application/octet-stream;base64,"
        }
    ]
}
