{
    "asset" : {
        "generator" : "Khronos glTF Blender I/O v1.5.17",
        "version" : "2.0"
    },
    "scene" : 0,
    "scenes" : [
        {
            "name" : "Scene",
            "nodes" : [
                0,
                1,
                2,
                3
            ]
        }
    ],
    "nodes" : [
        {
            "mesh" : 0,
            "name" : "Paper",
            "rotation" : [
                0,
                0.1812186986207962,
                0,
                0.9834428429603577
            ],
            "scale" : [
                0.49531635642051697,
                0.49531635642051697,
                0.49531635642051697
            ],
            "translation" : [
                -1.0432322025299072,
                1.006978154182434,
                0.918458104133606
            ]
        },
        {
            "mesh" : 1,
            "name" : "Table",
            "scale" : [
                0.49531635642051697,
                0.49531635642051697,
                0.49531635642051697
            ],
            "translation" : [
                -1.417263388633728,
                0,
                0.26963818073272705
            ]
        },
        {
            "mesh" : 2,
            "name" : "Vase",
            "scale" : [
                0.49531635642051697,
                0.49531635642051697,
                0.49531635642051697
            ],
            "translation" : [
                -1.417263388633728,
                1.005941390991211,
                0.26963818073272705
            ]
        },
        {
            "mesh" : 3,
            "name" : "DiningChairs",
            "translation" : [
                -1.417263388633728,
                0.5058358907699585,
                -0.42380470037460327
            ]
        }
    ],
    "materials" : [
        {
            "doubleSided" : true,
            "name" : "paperBake",
            "pbrMetallicRoughness" : {
                "baseColorTexture" : {
                    "index" : 0
                },
                "metallicFactor" : 0,
                "roughnessFactor" : 0.5
            }
        },
        {
            "doubleSided" : true,
            "name" : "tableBake",
            "pbrMetallicRoughness" : {
                "baseColorTexture" : {
                    "index" : 1
                },
                "metallicFactor" : 0
            }
        },
        {
            "doubleSided" : true,
            "name" : "vaseBake",
            "pbrMetallicRoughness" : {
                "baseColorTexture" : {
                    "index" : 2
                },
                "metallicFactor" : 0,
                "roughnessFactor" : 0.036764707416296005
            }
        },
        {
            "doubleSided" : true,
            "name" : "diningChairsBake",
            "pbrMetallicRoughness" : {
                "baseColorTexture" : {
                    "index" : 3
                },
                "metallicFactor" : 0
            }
        }
    ],
    "meshes" : [
        {
            "name" : "Plane.002",
            "primitives" : [
                {
                    "attributes" : {
                        "POSITION" : 0,
                        "TEXCOORD_0" : 1
                    },
                    "indices" : 2,
                    "material" : 0
                }
            ]
        },
        {
            "name" : "Cube",
            "primitives" : [
                {
                    "attributes" : {
                        "POSITION" : 3,
                        "TEXCOORD_0" : 4
                    },
                    "indices" : 5,
                    "material" : 1
                }
            ]
        },
        {
            "name" : "Circle",
            "primitives" : [
                {
                    "attributes" : {
                        "POSITION" : 6,
                        "TEXCOORD_0" : 7
                    },
                    "indices" : 8,
                    "material" : 2
                }
            ]
        },
        {
            "name" : "Cube.005",
            "primitives" : [
                {
                    "attributes" : {
                        "POSITION" : 9,
                        "TEXCOORD_0" : 10
                    },
                    "indices" : 11,
                    "material" : 3
                }
            ]
        }
    ],
    "textures" : [
        {
            "sampler" : 0,
            "source" : 0
        },
        {
            "sampler" : 0,
            "source" : 1
        },
        {
            "sampler" : 0,
            "source" : 2
        },
        {
            "sampler" : 0,
            "source" : 3
        }
    ],
    "images" : [
        {
            "bufferView" : 3,
            "mimeType" : "image/png",
            "name" : "gridPapersCompressed-min"
        },
        {
            "bufferView" : 7,
            "mimeType" : "image/png",
            "name" : "tableCompressed-min"
        },
        {
            "bufferView" : 11,
            "mimeType" : "image/png",
            "name" : "vaseCompressed-min"
        },
        {
            "bufferView" : 15,
            "mimeType" : "image/png",
            "name" : "chairCompressed-min"
        }
    ],
    "accessors" : [
        {
            "bufferView" : 0,
            "componentType" : 5126,
            "count" : 24,
            "max" : [
                0.9618666172027588,
                0.006000041961669922,
                0.46678662300109863
            ],
            "min" : [
                -0.35474449396133423,
                -0.2508196234703064,
                -1.125582218170166
            ],
            "type" : "VEC3"
        },
        {
            "bufferView" : 1,
            "componentType" : 5126,
            "count" : 24,
            "type" : "VEC2"
        },
        {
            "bufferView" : 2,
            "componentType" : 5123,
            "count" : 54,
            "type" : "SCALAR"
        },
        {
            "bufferView" : 4,
            "componentType" : 5126,
            "count" : 336,
            "max" : [
                1.600000023841858,
                2.030906915664673,
                1.600000023841858
            ],
            "min" : [
                -1.600000023841858,
                0,
                -1.600000023841858
            ],
            "type" : "VEC3"
        },
        {
            "bufferView" : 5,
            "componentType" : 5126,
            "count" : 336,
            "type" : "VEC2"
        },
        {
            "bufferView" : 6,
            "componentType" : 5123,
            "count" : 780,
            "type" : "SCALAR"
        },
        {
            "bufferView" : 8,
            "componentType" : 5126,
            "count" : 525,
            "max" : [
                0.19445276260375977,
                0.6842524409294128,
                0.19445276260375977
            ],
            "min" : [
                -0.19445277750492096,
                0,
                -0.19445276260375977
            ],
            "type" : "VEC3"
        },
        {
            "bufferView" : 9,
            "componentType" : 5126,
            "count" : 525,
            "type" : "VEC2"
        },
        {
            "bufferView" : 10,
            "componentType" : 5123,
            "count" : 2772,
            "type" : "SCALAR"
        },
        {
            "bufferView" : 12,
            "componentType" : 5126,
            "count" : 8961,
            "max" : [
                0.34636595845222473,
                0.702800989151001,
                0.789414644241333
            ],
            "min" : [
                -1.4173579216003418,
                -0.5054152607917786,
                -0.3394745886325836
            ],
            "type" : "VEC3"
        },
        {
            "bufferView" : 13,
            "componentType" : 5126,
            "count" : 8961,
            "type" : "VEC2"
        },
        {
            "bufferView" : 14,
            "componentType" : 5123,
            "count" : 27192,
            "type" : "SCALAR"
        }
    ],
    "bufferViews" : [
        {
            "buffer" : 0,
            "byteLength" : 288,
            "byteOffset" : 0
        },
        {
            "buffer" : 0,
            "byteLength" : 192,
            "byteOffset" : 288
        },
        {
            "buffer" : 0,
            "byteLength" : 108,
            "byteOffset" : 480
        },
        {
            "buffer" : 0,
            "byteLength" : 65858,
            "byteOffset" : 588
        },
        {
            "buffer" : 0,
            "byteLength" : 4032,
            "byteOffset" : 66448
        },
        {
            "buffer" : 0,
            "byteLength" : 2688,
            "byteOffset" : 70480
        },
        {
            "buffer" : 0,
            "byteLength" : 1560,
            "byteOffset" : 73168
        },
        {
            "buffer" : 0,
            "byteLength" : 200530,
            "byteOffset" : 74728
        },
        {
            "buffer" : 0,
            "byteLength" : 6300,
            "byteOffset" : 275260
        },
        {
            "buffer" : 0,
            "byteLength" : 4200,
            "byteOffset" : 281560
        },
        {
            "buffer" : 0,
            "byteLength" : 5544,
            "byteOffset" : 285760
        },
        {
            "buffer" : 0,
            "byteLength" : 70918,
            "byteOffset" : 291304
        },
        {
            "buffer" : 0,
            "byteLength" : 107532,
            "byteOffset" : 362224
        },
        {
            "buffer" : 0,
            "byteLength" : 71688,
            "byteOffset" : 469756
        },
        {
            "buffer" : 0,
            "byteLength" : 54384,
            "byteOffset" : 541444
        },
        {
            "buffer" : 0,
            "byteLength" : 632792,
            "byteOffset" : 595828
        }
    ],
    "samplers" : [
        {
            "magFilter" : 9729,
            "minFilter" : 9987
        }
    ],
    "buffers" : [
        {
            "byteLength" : 1228620,
            "uri" : "data:application/octet-stream;base64,"
        }
    ]
}
