{
    "asset" : {
        "generator" : "Khronos glTF Blender I/O v1.5.17",
        "version" : "2.0"
    },
    "scene" : 0,
    "scenes" : [
        {
            "name" : "Scene",
            "nodes" : [
                0,
                1,
                2,
                3
            ]
        }
    ],
    "nodes" : [
        {
            "mesh" : 0,
            "name" : "TreeShadow1",
            "rotation" : [
                0.1894770860671997,
                -0.6812477111816406,
                0.6812477111816406,
                0.1894770860671997
            ],
            "scale" : [
                0.12014073133468628,
                -0.12014073133468628,
                0.12014072388410568
            ],
            "translation" : [
                0.4591705799102783,
                2.697500705718994,
                1.7764568328857422
            ]
        },
        {
            "mesh" : 1,
            "name" : "TreeShadow2",
            "rotation" : [
                0.6023284792900085,
                0.3704057037830353,
                -0.37040573358535767,
                0.6023284792900085
            ],
            "scale" : [
                0.08622448146343231,
                0.38711434602737427,
                0.0041048708371818066
            ],
            "translation" : [
                0.22938871383666992,
                2.7540698051452637,
                1.8286997079849243
            ]
        },
        {
            "mesh" : 2,
            "name" : "FakeWindow",
            "rotation" : [
                0.3708493411540985,
                0.3680294156074524,
                -0.19629612565040588,
                0.8297548890113831
            ],
            "scale" : [
                0.5101866722106934,
                0.5101866126060486,
                0.5101866126060486
            ],
            "translation" : [
                1.1882280111312866,
                3.173790693283081,
                2.2617383003234863
            ]
        },
        {
            "mesh" : 3,
            "name" : "CeilingPosts",
            "translation" : [
                1.1673072576522827,
                3.596017837524414,
                2.043571949005127
            ]
        }
    ],
    "animations" : [
        {
            "channels" : [
                {
                    "sampler" : 0,
                    "target" : {
                        "node" : 0,
                        "path" : "translation"
                    }
                }
            ],
            "name" : "TreeShadow1Action",
            "samplers" : [
                {
                    "input" : 16,
                    "interpolation" : "LINEAR",
                    "output" : 17
                }
            ]
        },
        {
            "channels" : [
                {
                    "sampler" : 0,
                    "target" : {
                        "node" : 1,
                        "path" : "translation"
                    }
                }
            ],
            "name" : "TreeShadow2Action",
            "samplers" : [
                {
                    "input" : 16,
                    "interpolation" : "LINEAR",
                    "output" : 18
                }
            ]
        }
    ],
    "materials" : [
        {
            "doubleSided" : true,
            "name" : "treeShadow",
            "pbrMetallicRoughness" : {
                "baseColorFactor" : [
                    0,
                    0,
                    0,
                    1
                ],
                "metallicFactor" : 0,
                "roughnessFactor" : 0
            }
        }
    ],
    "meshes" : [
        {
            "name" : "Plane.011",
            "primitives" : [
                {
                    "attributes" : {
                        "POSITION" : 0,
                        "NORMAL" : 1,
                        "TEXCOORD_0" : 2
                    },
                    "indices" : 3,
                    "material" : 0
                }
            ]
        },
        {
            "name" : "Plane.004",
            "primitives" : [
                {
                    "attributes" : {
                        "POSITION" : 4,
                        "NORMAL" : 5,
                        "TEXCOORD_0" : 6
                    },
                    "indices" : 7,
                    "material" : 0
                }
            ]
        },
        {
            "name" : "Plane.006",
            "primitives" : [
                {
                    "attributes" : {
                        "POSITION" : 8,
                        "NORMAL" : 9,
                        "TEXCOORD_0" : 10
                    },
                    "indices" : 11
                }
            ]
        },
        {
            "name" : "Cylinder.003",
            "primitives" : [
                {
                    "attributes" : {
                        "POSITION" : 12,
                        "NORMAL" : 13,
                        "TEXCOORD_0" : 14
                    },
                    "indices" : 15
                }
            ]
        }
    ],
    "accessors" : [
        {
            "bufferView" : 0,
            "componentType" : 5126,
            "count" : 224,
            "max" : [
                1.0628058910369873,
                0.3884381949901581,
                1.3424700498580933
            ],
            "min" : [
                -1.248218059539795,
                -2.2471580505371094,
                -0.6128092408180237
            ],
            "type" : "VEC3"
        },
        {
            "bufferView" : 1,
            "componentType" : 5126,
            "count" : 224,
            "type" : "VEC3"
        },
        {
            "bufferView" : 2,
            "componentType" : 5126,
            "count" : 224,
            "type" : "VEC2"
        },
        {
            "bufferView" : 3,
            "componentType" : 5123,
            "count" : 456,
            "type" : "SCALAR"
        },
        {
            "bufferView" : 4,
            "componentType" : 5126,
            "count" : 305,
            "max" : [
                2.8056540489196777,
                0.49814343452453613,
                0.589440643787384
            ],
            "min" : [
                -0.1691942811012268,
                -0.18100976943969727,
                -23.974149703979492
            ],
            "type" : "VEC3"
        },
        {
            "bufferView" : 5,
            "componentType" : 5126,
            "count" : 305,
            "type" : "VEC3"
        },
        {
            "bufferView" : 6,
            "componentType" : 5126,
            "count" : 305,
            "type" : "VEC2"
        },
        {
            "bufferView" : 7,
            "componentType" : 5123,
            "count" : 612,
            "type" : "SCALAR"
        },
        {
            "bufferView" : 8,
            "componentType" : 5126,
            "count" : 16,
            "max" : [
                0.9104915857315063,
                0.01942434348165989,
                0.9040083885192871
            ],
            "min" : [
                -1.160752773284912,
                0.01942422054708004,
                -1.1672357320785522
            ],
            "type" : "VEC3"
        },
        {
            "bufferView" : 9,
            "componentType" : 5126,
            "count" : 16,
            "type" : "VEC3"
        },
        {
            "bufferView" : 10,
            "componentType" : 5126,
            "count" : 16,
            "type" : "VEC2"
        },
        {
            "bufferView" : 11,
            "componentType" : 5123,
            "count" : 24,
            "type" : "SCALAR"
        },
        {
            "bufferView" : 12,
            "componentType" : 5126,
            "count" : 144,
            "max" : [
                0.18544435501098633,
                0.31253430247306824,
                0.4879741966724396
            ],
            "min" : [
                -0.27949976921081543,
                -0.5466369390487671,
                -0.01300004031509161
            ],
            "type" : "VEC3"
        },
        {
            "bufferView" : 13,
            "componentType" : 5126,
            "count" : 144,
            "type" : "VEC3"
        },
        {
            "bufferView" : 14,
            "componentType" : 5126,
            "count" : 144,
            "type" : "VEC2"
        },
        {
            "bufferView" : 15,
            "componentType" : 5123,
            "count" : 240,
            "type" : "SCALAR"
        },
        {
            "bufferView" : 16,
            "componentType" : 5126,
            "count" : 150,
            "max" : [
                6.25
            ],
            "min" : [
                0.041666666666666664
            ],
            "type" : "SCALAR"
        },
        {
            "bufferView" : 17,
            "componentType" : 5126,
            "count" : 150,
            "type" : "VEC3"
        },
        {
            "bufferView" : 18,
            "componentType" : 5126,
            "count" : 150,
            "type" : "VEC3"
        }
    ],
    "bufferViews" : [
        {
            "buffer" : 0,
            "byteLength" : 2688,
            "byteOffset" : 0
        },
        {
            "buffer" : 0,
            "byteLength" : 2688,
            "byteOffset" : 2688
        },
        {
            "buffer" : 0,
            "byteLength" : 1792,
            "byteOffset" : 5376
        },
        {
            "buffer" : 0,
            "byteLength" : 912,
            "byteOffset" : 7168
        },
        {
            "buffer" : 0,
            "byteLength" : 3660,
            "byteOffset" : 8080
        },
        {
            "buffer" : 0,
            "byteLength" : 3660,
            "byteOffset" : 11740
        },
        {
            "buffer" : 0,
            "byteLength" : 2440,
            "byteOffset" : 15400
        },
        {
            "buffer" : 0,
            "byteLength" : 1224,
            "byteOffset" : 17840
        },
        {
            "buffer" : 0,
            "byteLength" : 192,
            "byteOffset" : 19064
        },
        {
            "buffer" : 0,
            "byteLength" : 192,
            "byteOffset" : 19256
        },
        {
            "buffer" : 0,
            "byteLength" : 128,
            "byteOffset" : 19448
        },
        {
            "buffer" : 0,
            "byteLength" : 48,
            "byteOffset" : 19576
        },
        {
            "buffer" : 0,
            "byteLength" : 1728,
            "byteOffset" : 19624
        },
        {
            "buffer" : 0,
            "byteLength" : 1728,
            "byteOffset" : 21352
        },
        {
            "buffer" : 0,
            "byteLength" : 1152,
            "byteOffset" : 23080
        },
        {
            "buffer" : 0,
            "byteLength" : 480,
            "byteOffset" : 24232
        },
        {
            "buffer" : 0,
            "byteLength" : 600,
            "byteOffset" : 24712
        },
        {
            "buffer" : 0,
            "byteLength" : 1800,
            "byteOffset" : 25312
        },
        {
            "buffer" : 0,
            "byteLength" : 1800,
            "byteOffset" : 27112
        }
    ],
    "buffers" : [
        {
            "byteLength" : 28912,
            "uri" : "data:application/octet-stream;base64,"
        }
    ]
}
